# xmcd
#
# Track frame offsets: 
#        150
#        13275
#        33349
#        49109
#        59442
#        73688
#        92939
#        112155
#        126142
#        138498
#        152448
#
# Disc length: 2188 seconds
#
# Revision: 0
# Processed by: cddbd v1.5.2PL0 Copyright (c) Steve Scherf et al.
# Submitted via: ExactAudioCopy v1.3
#
DISCID=9d088a0b
DTITLE=Dr. Fry's Texas Medicine Band - Last Date - Disc 2
DYEAR=2017
DGENRE=Country
TTITLE0=Your Mama Don't Dance
TTITLE1=I'll Remember You
TTITLE2=Take Me Back To Tulsa
TTITLE3=Jambalaya
TTITLE4=Tore Down
TTITLE5=Help Me Make It Through The Night
TTITLE6=Margaritaville
TTITLE7=Long Cool Woman In A Black Dress
TTITLE8=Matilda
TTITLE9=Pretty Woman
TTITLE10=Pipeline
EXTD=
EXTT0=
EXTT1=
EXTT2=
EXTT3=
EXTT4=
EXTT5=
EXTT6=
EXTT7=
EXTT8=
EXTT9=
EXTT10=
PLAYORDER=
